<?xml version="1.0" encoding="UTF-8"?>
<svg width="112px" height="112px" viewBox="0 0 112 112" version="1.1" xmlns="http://www.w3.org/2000/svg" xmlns:xlink="http://www.w3.org/1999/xlink">
    <title>cnpa-logo-b</title>
    <g id="cnpa-logo-b" stroke="none" stroke-width="1" fill="none" fill-rule="evenodd">
        <path d="M56,0 C86.927946,0 112,25.072054 112,56 C112,86.927946 86.927946,112 56,112 C25.072054,112 0,86.927946 0,56 C0,25.072054 25.072054,0 56,0 Z M56,4 C27.281193,4 4,27.281193 4,56 C4,84.718807 27.281193,108 56,108 C84.718807,108 108,84.718807 108,56 C108,27.281193 84.718807,4 56,4 Z M30.3948462,35.557457 C29.7490276,36.1274796 24.3507422,41.62051 24.3507422,45.6479453 C24.3507422,49.1053579 26.823429,49.8431257 26.823429,49.8431257 C26.823429,49.8431257 26.6333179,52.0089012 26.6333179,54.8583932 C26.6333179,66.2911528 30.7219491,75.5267625 30.7219491,75.5267625 L18.3206169,75.5267625 C18.3206169,75.5267625 16.3371865,70.7777126 16.3371865,61.7350099 C16.3371865,52.6926177 19.2230233,46.4087003 21.6183611,42.8521938 C24.0143201,39.2944448 27.741678,36.2358927 29.8630321,35.1396475 C30.6793916,34.717489 31.0406648,34.9874343 30.3948462,35.557457 Z M41.61721,31.3924086 C46.5955114,31.3924086 57.0792688,35.2828521 57.0792688,53.0855761 C57.0792688,63.0418683 55.7935338,66.206659 55.7935338,66.206659 C55.7935338,66.206659 61.9584764,66.8329073 61.9584764,73.492698 L61.9584764,75.5267625 L37.7600049,75.5267625 C37.7600049,75.5267625 28.2653223,61.1625021 28.2653223,46.7227564 C28.2653223,33.997117 37.5621278,31.3924086 41.61721,31.3924086 Z M47.5376797,30.8488834 L51.0184282,30.8492241 C52.1711891,30.8686276 63.0675199,31.7443243 69.8310019,40.4224684 C76.6833887,49.2147961 79.0880456,60.3654955 79.0880456,66.0663433 C81.5827878,66.0663433 86.8527793,68.6163793 86.8527793,73.940422 L86.8527793,75.5268557 L66.2378399,75.5268557 C55.9646959,52.9937201 63.2973307,39.3849339 47.5237009,30.9333773 C47.4712029,30.9051091 47.478037,30.8488834 47.5376797,30.8488834 Z M63.6660981,33.3300933 L63.7005402,33.3333435 C64.467508,33.4678502 68.5315987,34.2438266 75.6502032,36.7037772 C76.0006041,36.1393461 77.3049774,34.134171 79.8745837,34.134171 C82.4441899,34.134171 83.3397623,35.5746043 83.3397623,35.5746043 C83.3397623,35.5746043 84.8634468,35.146233 85.9289388,35.146233 C86.9947414,35.146233 88.3245871,35.4997403 89.2773171,36.0225458 C89.6861181,35.6721449 90.6400906,35.1074031 91.8664936,35.1074031 C95.1956123,35.1074031 95.6628135,38.0274102 95.6628135,38.7477822 C95.6628135,39.4681541 95.6432432,40.227356 94.0664394,41.7653299 C94.3196102,43.3033039 93.9223028,45.071772 93.8250728,45.3056832 C93.7275322,45.5392838 93.6107319,45.5781136 93.2799013,45.4224835 C93.0139943,45.2972959 92.4011034,44.9350908 92.1706092,44.7974777 C92.1143836,44.7639287 92.1109665,44.7216818 92.1541454,44.6812987 C92.2641116,44.5787878 92.4588823,44.3576128 92.4588823,44.0783483 C91.2153942,44.2867871 90.8541209,43.5173342 90.8541209,43.1085332 C90.8541209,42.6997322 90.9414105,42.297144 92.0510132,41.985573 C91.5838121,41.167971 90.1822087,40.7486083 88.9750653,40.7486083 C87.7682326,40.7486083 86.6493107,40.8697575 86.0069092,41.8821302 C86.5520807,41.8041598 88.1254675,42.0060752 88.1254675,43.0184479 C88.1254675,44.0308205 86.9040348,44.2370849 85.8332619,44.2370849 C85.8332619,44.8794864 86.85309,45.0267293 87.174912,45.0869933 L87.2174805,45.0948669 L87.301093,45.1125513 C87.5171278,45.1673679 87.6551927,45.3059284 87.174912,46.0676808 C86.6104809,46.9629425 85.948509,48.5552783 85.948509,49.5328594 C85.948509,50.8372328 86.4169527,52.6777692 88.7995543,52.5861306 C87.8968372,54.4819608 83.4366817,57.415636 81.0553227,58.1742165 C80.9714502,58.1956506 80.9400756,58.1285526 80.9335522,58.0850631 C80.4868532,55.1753071 73.1709929,39.3448304 63.6884252,33.3861521 C63.6615032,33.3691705 63.636514,33.3444575 63.6490776,33.334471 L63.6660981,33.3300933 Z M94.3831048,46.0981855 C94.861489,46.3373776 94.9164936,46.5415926 94.922339,46.9173215 L94.9229955,47.0242006 C94.9229955,48.0194881 94.7530759,48.8889668 93.2738128,48.9110222 L93.2738128,49.4804235 C93.2738128,49.6543814 93.7938225,49.5751684 93.7938225,50.0100631 C93.7938225,50.817414 93.0047993,51.0190188 92.1564441,51.0190188 C91.3080888,51.0190188 91.2413015,50.9658995 90.4364357,50.9658995 C89.6315699,50.9658995 89.0652749,51.1491765 88.2824645,51.1491765 C87.4993434,51.1491765 86.8529036,50.9957208 86.8529036,49.9097267 C88.9655598,49.8072158 90.7125938,49.696939 91.1940843,49.6733304 C91.6991834,49.6487899 92.2785252,49.4061808 92.2785252,48.8812008 C92.2785252,48.8812008 90.0006091,49.0613715 90.0006091,47.3211715 C90.0006091,46.4513821 90.5088146,45.9096276 91.748575,45.9748618 C92.9883355,46.040096 93.8612312,45.8372487 94.3831048,46.0981855 Z M91.4517905,37.5648687 C92.0367238,38.1053806 92.5315718,38.5840754 93.3600462,39.51475 C93.3600462,39.51475 94.2037418,38.5986754 93.1236498,37.5987283 C92.2116136,36.7541007 91.4517905,37.5648687 91.4517905,37.5648687 Z M78.937075,36.7879604 C77.5861058,37.7692692 78.5149165,38.9835572 78.5149165,38.9835572 C79.5356765,38.0528826 80.1249587,37.666137 80.8456413,37.1259357 C80.8456413,37.1259357 79.8310942,36.1387248 78.937075,36.7879604 Z" id="Combined-Shape" fill="#0357A3"></path>
    </g>
</svg>